{"title":"Omnibus &amp; A Segunda Besta - Sergio Bianchi","uid":5657653,"size":458328064,"categoryP":"video","categoryS":"movie_clips","magnet":"?xt=urn:btih:642222ecb089df86f0522f8496e40b43b48394f7&amp;dn=Omnibus+%26+A+Segunda+Besta+-+Sergio+Bianchi&amp;tr=udp%3A%2F%2Ftracker.openbittorrent.com%3A80&amp;tr=udp%3A%2F%2Fopen.demonii.com%3A1337&amp;tr=udp%3A%2F%2Ftracker.coppersurfer.tk%3A6969&amp;tr=udp%3A%2F%2Fexodus.desync.com%3A6969","seeders":3,"leechers":0,"uploader":"mfccorrea","files":2,"time":1277864253,"description":"Two short films by Brazilian director Sergio Bianchi, both based on short stories from Julio Cortazar's Bestiario. The short films are Omnibus (1972) and A Segunda Besta (1977).\n\n   General\n      Format : AVI\n      Format/Info : Audio Video Interleave\n      File size : 437 MiB\n      Duration : 31mn 33s\n      Overall bit rate : 1 937 Kbps\n      Writing library : VirtualDub build 0/release\n   Video #0\n      ID : 0\n      Format : MPEG-4 Visual\n      Format profile : AdvancedSimple@L5\n      Format settings, BVOP : Yes\n      Format settings, QPel : No\n      Format settings, GMC : No warppoints\n      Format settings, Matrix : Default (MPEG)\n      Muxing mode : Packed bitstream\n      Codec ID : XVID\n      Codec ID/Hint : XviD\n      Duration : 31mn 33s\n      Bit rate : 1 735 Kbps\n      Width : 640 pixels\n      Height : 464 pixels\n      Display aspect ratio : 1.379\n      Frame rate : 23.976 fps\n      Resolution : 24 bits\n      Colorimetry : 4:2:0\n      Scan type : Progressive\n      Bits/(Pixel*Frame) : 0.244\n      Stream size : 392 MiB (90%)\n      Writing library : XviD 1.2.0.dev47 (UTC 2006-11-01)\n   Audio #1\n      ID : 1\n      Format : AC-3\n      Format/Info : Audio Coding 3\n      Codec ID : 2000\n      Duration : 31mn 33s\n      Bit rate mode : Constant\n      Bit rate : 192 Kbps\n      Channel(s) : 2 channels\n      Channel positions : L R\n      Sampling rate : 48.0 KHz\n      Stream size : 43.3 MiB (10%)\n      Alignment : Split accross interleaves\n      Interleave, duration : 42 ms (1.00 video frame)\n      Interleave, preload duration : 500 ms\n\nFilms are not at IMDB\n\nSubtitles not necessary\n\nOmnibus &amp; A Segunda Besta - Sergio Bianchi","torrent":{"xt":"urn:btih:642222ecb089df86f0522f8496e40b43b48394f7","amp;dn":"Omnibus+%26+A+Segunda+Besta+-+Sergio+Bianchi","amp;tr":["udp%3A%2F%2Ftracker.openbittorrent.com%3A80","udp%3A%2F%2Fopen.demonii.com%3A1337","udp%3A%2F%2Ftracker.coppersurfer.tk%3A6969","udp%3A%2F%2Fexodus.desync.com%3A6969"],"infoHash":"642222ecb089df86f0522f8496e40b43b48394f7","infoHashBuffer":{"type":"Buffer","data":[100,34,34,236,176,137,223,134,240,82,47,132,150,228,11,67,180,131,148,247]},"announce":[],"urlList":[]}}